<?xml version="1.0" encoding="utf-8"?>
<!-- Generator: Adobe Illustrator 19.0.0, SVG Export Plug-In . SVG Version: 6.00 Build 0)  -->
<svg version="1.1" id="Layer_1" xmlns="http://www.w3.org/2000/svg" xmlns:xlink="http://www.w3.org/1999/xlink" x="0px" y="0px"
	 viewBox="0 0 64 59" style="enable-background:new 0 0 64 59;" xml:space="preserve">
<style type="text/css">
	.st0{fill:#231F20;}
	.st1{fill:none;stroke:#29BFE8;stroke-width:4;}
	.st2{fill:#29BFE8;}
</style>
<rect id="XMLID_55_" x="30.9" y="27.2" class="st0" width="2.3" height="4.6"/>
<g id="XMLID_15_">
	<path id="XMLID_41_" class="st0" d="M42.2,40.7H40c0-0.3-0.2-0.8-0.3-1H24.4c-0.1,0.2-0.3,0.6-0.3,1h-2.3c0-1.3,0.9-3.2,2.4-3.2
		h15.6C41.3,37.5,42.2,39.3,42.2,40.7z"/>
	<path id="XMLID_40_" class="st0" d="M31.2,38.5h-2.3V30c-7.1-4.4-11.6-12.3-11.6-20.8c0-2.5,0.4-4.9,1.1-7.2l0.2-0.8h4.7v2.3h-3
		c-0.5,1.9-0.8,3.8-0.8,5.8c0,7.9,4.2,15.2,11,19.1l0.6,0.3V38.5z"/>
	<path id="XMLID_39_" class="st0" d="M35.1,35.6h-2.3v-7l0.6-0.3c6.8-3.9,11-11.3,11-19.1c0-2-0.3-3.9-0.8-5.8H31.9V1.2h13.4L45.5,2
		c0.7,2.3,1.1,4.8,1.1,7.2c0,8.5-4.4,16.4-11.6,20.8V35.6z"/>
	<path id="XMLID_38_" class="st0" d="M40.4,25.3l-0.7-2.1c7-2.4,11.9-9.2,12.4-17.2h-7V3.7h9.3l0,1.1C54.3,14.2,48.6,22.5,40.4,25.3
		z"/>
	<path id="XMLID_37_" class="st0" d="M23.6,25.3c-8.3-2.8-13.9-11-14-20.5l0-1.1h9.3v2.3h-7c0.5,8,5.4,14.8,12.4,17.2L23.6,25.3z"/>
	<path id="XMLID_140_" class="st1" d="M39.5,49.7"/>
	<path id="XMLID_139_" class="st1" d="M24.5,49.7"/>
	<path id="XMLID_34_" class="st0" d="M47.3,59H16.7v-6.6h1v-9.9h28.5v9.9h1V59z M19,56.7h26v-2.1h-1v-9.9H20v9.9h-1V56.7z"/>
	<polygon id="XMLID_14_" class="st2" points="22.5,0 22.5,15.9 27.3,12.9 32.2,15.9 32.2,0 	"/>
	<g id="XMLID_27_">
		<path id="XMLID_24_" class="st0" d="M47.3,59H16.7v-6.6h30.5V59z M19,56.7h26v-2.1H19V56.7z"/>
	</g>
	<rect id="XMLID_125_" x="22.9" y="46.6" class="st2" width="18.2" height="4.2"/>
</g>
</svg>
