<?xml version="1.0" encoding="utf-8"?>
<!-- Generator: Adobe Illustrator 19.0.0, SVG Export Plug-In . SVG Version: 6.00 Build 0)  -->
<svg version="1.1" id="Layer_1" xmlns="http://www.w3.org/2000/svg" xmlns:xlink="http://www.w3.org/1999/xlink" x="0px" y="0px"
	 viewBox="0 0 64 59" style="enable-background:new 0 0 64 59;" xml:space="preserve">
<style type="text/css">
	.st0{fill:#231F20;}
	.st1{fill:#29BFE8;}
</style>
<g id="XMLID_2_">
	<path id="XMLID_21_" class="st0" d="M57.5,52H6.9C5.4,52,4,50.6,4,49v-5.6h56v5.7C60,50.5,59.1,52,57.5,52z M6.2,45.7V49
		c0,0.3,0.4,0.7,0.6,0.7h50.6c0.1,0,0.3-0.3,0.3-0.6v-3.4H6.2z"/>
	<path id="XMLID_20_" class="st0" d="M24,58.9l-0.9-2.1c0.6-0.2,1-0.5,1.3-0.6l0.1,0c0.1,0,0.1-0.1,0.2-0.1c0-0.1,0.1-0.2,0.1-0.6
		c0.1-0.6,0.1-1.8,0.1-2.8c0-0.7,0-1.4,0-1.9l2.2,0.2c0,0.4,0,1,0,1.7c0,1.2,0,2.4-0.1,3.3c-0.3,1.3-0.6,1.7-1.5,2.2l-0.1,0
		C25.1,58.4,24.4,58.7,24,58.9z"/>
	<path id="XMLID_19_" class="st0" d="M40,58.9c-0.7-0.3-1.2-0.5-1.5-0.7l-0.1,0c-0.9-0.5-1.2-0.9-1.4-2.2c-0.2-0.9-0.2-2.1-0.1-3.2
		c0-0.7,0-1.3,0-1.7l2.2-0.2c0,0.5,0,1.2,0,1.9c0,1,0,2.1,0.1,2.8c0.1,0.3,0.1,0.5,0.1,0.6c0,0,0.1,0.1,0.2,0.1l0,0
		c0.2,0.1,0.7,0.3,1.3,0.6L40,58.9z"/>
	<rect id="XMLID_18_" x="22.1" y="56.6" class="st0" width="19.9" height="2.3"/>
	<path id="XMLID_17_" class="st0" d="M60,45.7H4V13.4c0-1.4,1.2-2.6,2.6-2.6h5.3v2.3H6.6c-0.2,0-0.3,0.1-0.3,0.3v30.1h51.5V13.4
		c0-0.2-0.2-0.3-0.3-0.3h-5.3v-2.3h5.3c1.4,0,2.6,1.2,2.6,2.6V45.7z"/>
	<polygon id="XMLID_11_" class="st1" points="16.5,39.2 15.4,16.2 15.4,15.1 8.2,15.1 8.2,41.4 16.5,41.4 16.5,39.2 	"/>
	<polygon id="XMLID_101_" class="st1" points="48.7,15.1 48.7,16.2 48.7,16.2 47.6,39.2 47.6,39.2 47.6,40.3 47.6,40.3 47.6,40.3 
		47.6,41.4 55.7,41.4 55.7,15.1 	"/>
	<rect id="XMLID_10_" x="47.5" y="12.7" class="st0" width="2.3" height="27.6"/>
	<polygon id="XMLID_9_" class="st0" points="16.5,40.3 14.3,40.3 14.3,0.1 37.7,0.1 37.7,2.4 16.5,2.4 	"/>
	<g id="XMLID_108_">
		<polygon id="XMLID_109_" class="st0" points="41,0.2 41,8.9 49.7,8.9 		"/>
	</g>
	<rect id="XMLID_8_" x="21" y="10.8" class="st0" width="12.5" height="2.3"/>
	<rect id="XMLID_7_" x="21" y="15.7" class="st0" width="21.4" height="2.3"/>
	<rect id="XMLID_6_" x="21" y="20.7" class="st0" width="21.4" height="2.3"/>
	<rect id="XMLID_5_" x="21" y="25.6" class="st0" width="21.4" height="2.3"/>
	<rect id="XMLID_4_" x="21" y="30.5" class="st0" width="21.4" height="2.3"/>
	<rect id="XMLID_3_" x="21" y="35.4" class="st0" width="21.4" height="2.3"/>
</g>
</svg>
