<?xml version="1.0" encoding="utf-8"?>
<!-- Generator: Adobe Illustrator 19.0.0, SVG Export Plug-In . SVG Version: 6.00 Build 0)  -->
<svg version="1.1" id="Layer_1" xmlns="http://www.w3.org/2000/svg" xmlns:xlink="http://www.w3.org/1999/xlink" x="0px" y="0px"
	 viewBox="-342 638 64 59" style="enable-background:new -342 638 64 59;" xml:space="preserve">
<style type="text/css">
	.st0{fill:#FFFFFF;}
</style>
<g id="XMLID_2_">
	<path id="XMLID_21_" class="st0" d="M-284.5,690h-50.6c-1.5,0-2.9-1.4-2.9-3v-5.6h56v5.7C-282,688.5-282.9,690-284.5,690z
		 M-335.8,683.7v3.3c0,0.3,0.4,0.7,0.6,0.7h50.6c0.1,0,0.3-0.3,0.3-0.6v-3.4H-335.8z"/>
	<path id="XMLID_20_" class="st0" d="M-318,696.9l-0.9-2.1c0.6-0.2,1-0.5,1.3-0.6h0.1c0.1,0,0.1-0.1,0.2-0.1c0-0.1,0.1-0.2,0.1-0.6
		c0.1-0.6,0.1-1.8,0.1-2.8c0-0.7,0-1.4,0-1.9l2.2,0.2c0,0.4,0,1,0,1.7c0,1.2,0,2.4-0.1,3.3c-0.3,1.3-0.6,1.7-1.5,2.2h-0.1
		C-316.9,696.4-317.6,696.7-318,696.9z"/>
	<path id="XMLID_19_" class="st0" d="M-302,696.9c-0.7-0.3-1.2-0.5-1.5-0.7h-0.1c-0.9-0.5-1.2-0.9-1.4-2.2c-0.2-0.9-0.2-2.1-0.1-3.2
		c0-0.7,0-1.3,0-1.7l2.2-0.2c0,0.5,0,1.2,0,1.9c0,1,0,2.1,0.1,2.8c0.1,0.3,0.1,0.5,0.1,0.6c0,0,0.1,0.1,0.2,0.1l0,0
		c0.2,0.1,0.7,0.3,1.3,0.6L-302,696.9z"/>
	<rect id="XMLID_18_" x="-319.9" y="694.6" class="st0" width="19.9" height="2.3"/>
	<path id="XMLID_17_" class="st0" d="M-282,683.7h-56v-32.3c0-1.4,1.2-2.6,2.6-2.6h5.3v2.3h-5.3c-0.2,0-0.3,0.1-0.3,0.3v30.1h51.5
		v-30.1c0-0.2-0.2-0.3-0.3-0.3h-5.3v-2.3h5.3c1.4,0,2.6,1.2,2.6,2.6v32.3H-282z"/>
	<polygon id="XMLID_11_" class="st0" points="-325.5,677.2 -326.6,654.2 -326.6,653.1 -333.8,653.1 -333.8,679.4 -325.5,679.4 	"/>
	<polygon id="XMLID_101_" class="st0" points="-293.3,653.1 -293.3,654.2 -293.3,654.2 -294.4,677.2 -294.4,677.2 -294.4,678.3 
		-294.4,678.3 -294.4,678.3 -294.4,679.4 -286.3,679.4 -286.3,653.1 	"/>
	<rect id="XMLID_10_" x="-294.5" y="650.7" class="st0" width="2.3" height="27.6"/>
	<polygon id="XMLID_9_" class="st0" points="-325.5,678.3 -327.7,678.3 -327.7,638.1 -304.3,638.1 -304.3,640.4 -325.5,640.4 	"/>
	<g id="XMLID_108_">
		<polygon id="XMLID_109_" class="st0" points="-301,638.2 -301,646.9 -292.3,646.9 		"/>
	</g>
	<rect id="XMLID_8_" x="-321" y="648.8" class="st0" width="12.5" height="2.3"/>
	<rect id="XMLID_7_" x="-321" y="653.7" class="st0" width="21.4" height="2.3"/>
	<rect id="XMLID_6_" x="-321" y="658.7" class="st0" width="21.4" height="2.3"/>
	<rect id="XMLID_5_" x="-321" y="663.6" class="st0" width="21.4" height="2.3"/>
	<rect id="XMLID_4_" x="-321" y="668.5" class="st0" width="21.4" height="2.3"/>
	<rect id="XMLID_3_" x="-321" y="673.4" class="st0" width="21.4" height="2.3"/>
</g>
</svg>
