<?xml version="1.0" encoding="utf-8"?>
<!-- Generator: Adobe Illustrator 19.0.0, SVG Export Plug-In . SVG Version: 6.00 Build 0)  -->
<svg version="1.1" id="Layer_1" xmlns="http://www.w3.org/2000/svg" xmlns:xlink="http://www.w3.org/1999/xlink" x="0px" y="0px"
	 viewBox="-342 638 64 59" style="enable-background:new -342 638 64 59;" xml:space="preserve">
<style type="text/css">
	.st0{fill:#FFFFFF;}
</style>
<g id="XMLID_16_">
	<polygon id="XMLID_56_" class="st0" points="-279.3,694.4 -340.7,694.4 -340.7,680.4 -328.8,680.4 -328.8,682.6 -338.4,682.6 
		-338.4,692.1 -281.6,692.1 -281.6,682.6 -320.3,682.6 -320.3,680.4 -279.3,680.4 	"/>
	<rect id="XMLID_54_" x="-297.9" y="684.6" class="st0" width="2.3" height="5.6"/>
	<path id="XMLID_53_" class="st0" d="M-286.5,682.6h-33.8v-2.3h29.5c-1-1.2-1.6-2.7-1.6-4.3s0.6-3.1,1.6-4.3h-38.4
		c-2.4,0-4.3,1.9-4.3,4.3s1.9,4.3,4.3,4.3v2.3c-3.6,0-6.6-2.9-6.6-6.5c0-3.6,3-6.5,6.6-6.5h42.7v2.2l-0.8,0.2c-1.8,0.6-3,2.2-3,4.1
		c0,1.8,1.2,3.5,3,4.1l0.8,0.3V682.6z"/>
	<rect id="XMLID_52_" x="-329.3" y="674.9" class="st0" width="38.4" height="2.3"/>
	<polygon id="XMLID_12_" class="st0" points="-329.7,674.9 -329.7,687.5 -324.5,684.3 -319.4,687.5 -319.4,674.9 	"/>
	<path id="XMLID_13_" class="st0" d="M-306.1,646h-0.2c-0.1,0-0.3,0-0.4,0c-1.6,0-3.2,0.5-4.6,1.5v-3.2c0-0.8,0.7-1.4,1.5-1.4v-2.3
		c-2.1,0-3.7,1.7-3.7,3.7v2.8c-1.4-0.7-2.7-1.1-4.2-1.1c-0.1,0-0.2,0-0.4,0h-0.2c-4,0.4-8.2,3.3-7.9,7.2c0.2,2.9,0.8,6,1.9,9.3l0,0
		c1.4,3.7,5.3,6.8,8.5,6.8l0,0h3l0.3-0.2c0.1-0.1,0.1-0.1,0.2-0.2c0.1,0.1,0.1,0.1,0.2,0.2l0.3,0.2h3l0,0c3.2,0,7-3.1,8.5-6.8l0,0
		c1.1-3.3,1.8-6.5,1.9-9.3C-298,649.3-302.1,646.5-306.1,646z"/>
</g>
</svg>
