<?xml version="1.0" encoding="utf-8"?>
<!-- Generator: Adobe Illustrator 19.0.0, SVG Export Plug-In . SVG Version: 6.00 Build 0)  -->
<svg version="1.1" id="Layer_1" xmlns="http://www.w3.org/2000/svg" xmlns:xlink="http://www.w3.org/1999/xlink" x="0px" y="0px"
	 viewBox="-342 638 64 59" style="enable-background:new -342 638 64 59;" xml:space="preserve">
<style type="text/css">
	.st0{fill:#FFFFFF;}
	.st1{fill:#FFFFFF;stroke:#29BFE8;stroke-width:4;}
</style>
<rect id="XMLID_55_" x="-311.1" y="665.2" class="st0" width="2.3" height="4.6"/>
<g id="XMLID_15_">
	<path id="XMLID_41_" class="st0" d="M-299.8,678.7h-2.2c0-0.3-0.2-0.8-0.3-1h-15.3c-0.1,0.2-0.3,0.6-0.3,1h-2.3
		c0-1.3,0.9-3.2,2.4-3.2h15.6C-300.7,675.5-299.8,677.3-299.8,678.7z"/>
	<path id="XMLID_40_" class="st0" d="M-310.8,676.5h-2.3V668c-7.1-4.4-11.6-12.3-11.6-20.8c0-2.5,0.4-4.9,1.1-7.2l0.2-0.8h4.7v2.3
		h-3c-0.5,1.9-0.8,3.8-0.8,5.8c0,7.9,4.2,15.2,11,19.1l0.6,0.3v9.8H-310.8z"/>
	<path id="XMLID_39_" class="st0" d="M-306.9,673.6h-2.3v-7l0.6-0.3c6.8-3.9,11-11.3,11-19.1c0-2-0.3-3.9-0.8-5.8h-11.7v-2.2h13.4
		l0.2,0.8c0.7,2.3,1.1,4.8,1.1,7.2c0,8.5-4.4,16.4-11.6,20.8v5.6H-306.9z"/>
	<path id="XMLID_38_" class="st0" d="M-301.6,663.3l-0.7-2.1c7-2.4,11.9-9.2,12.4-17.2h-7v-2.3h9.3v1.1
		C-287.7,652.2-293.4,660.5-301.6,663.3z"/>
	<path id="XMLID_37_" class="st0" d="M-318.4,663.3c-8.3-2.8-13.9-11-14-20.5v-1.1h9.3v2.3h-7c0.5,8,5.4,14.8,12.4,17.2
		L-318.4,663.3z"/>
	<path id="XMLID_140_" class="st1" d="M-302.5,687.7"/>
	<path id="XMLID_139_" class="st1" d="M-317.5,687.7"/>
	<path id="XMLID_34_" class="st0" d="M-294.7,697h-30.6v-6.6h1v-9.9h28.5v9.9h1L-294.7,697L-294.7,697z M-323,694.7h26v-2.1h-1v-9.9
		h-24v9.9h-1V694.7z"/>
	<polygon id="XMLID_14_" class="st0" points="-319.5,638 -319.5,653.9 -314.7,650.9 -309.8,653.9 -309.8,638 	"/>
	<g id="XMLID_27_">
		<path id="XMLID_24_" class="st0" d="M-294.7,697h-30.6v-6.6h30.5L-294.7,697L-294.7,697z M-323,694.7h26v-2.1h-26V694.7z"/>
	</g>
	<rect id="XMLID_125_" x="-319.1" y="684.6" class="st0" width="18.2" height="4.2"/>
</g>
</svg>
