<?xml version="1.0" encoding="utf-8"?>
<!-- Generator: Adobe Illustrator 19.0.0, SVG Export Plug-In . SVG Version: 6.00 Build 0)  -->
<svg version="1.1" id="Layer_1" xmlns="http://www.w3.org/2000/svg" xmlns:xlink="http://www.w3.org/1999/xlink" x="0px" y="0px"
	 viewBox="0 0 64 59" style="enable-background:new 0 0 64 59;" xml:space="preserve">
<style type="text/css">
	.st0{fill:#231F20;}
	.st1{fill:#29BFE8;}
</style>
<g id="XMLID_16_">
	<polygon id="XMLID_56_" class="st0" points="62.7,56.4 1.3,56.4 1.3,42.4 13.2,42.4 13.2,44.6 3.6,44.6 3.6,54.1 60.4,54.1 
		60.4,44.6 21.7,44.6 21.7,42.4 62.7,42.4 	"/>
	<rect id="XMLID_54_" x="44.1" y="46.6" class="st0" width="2.3" height="5.6"/>
	<path id="XMLID_53_" class="st0" d="M55.5,44.6H21.7v-2.3h29.5c-1-1.2-1.6-2.7-1.6-4.3c0-1.6,0.6-3.1,1.6-4.3H12.8
		c-2.4,0-4.3,1.9-4.3,4.3c0,2.4,1.9,4.3,4.3,4.3v2.3c-3.6,0-6.6-2.9-6.6-6.5c0-3.6,3-6.5,6.6-6.5h42.7v2.2L54.7,34
		c-1.8,0.6-3,2.2-3,4.1c0,1.8,1.2,3.5,3,4.1l0.8,0.3V44.6z"/>
	<rect id="XMLID_52_" x="12.7" y="36.9" class="st0" width="38.4" height="2.3"/>
	<polygon id="XMLID_12_" class="st1" points="12.3,36.9 12.3,49.5 17.5,46.3 22.6,49.5 22.6,36.9 	"/>
	<path id="XMLID_13_" class="st1" d="M35.9,8l-0.2,0c-0.1,0-0.3,0-0.4,0c-1.6,0-3.2,0.5-4.6,1.5V6.3c0-0.8,0.7-1.4,1.5-1.4V2.6
		c-2.1,0-3.7,1.7-3.7,3.7v2.8C27.1,8.4,25.8,8,24.3,8c-0.1,0-0.2,0-0.4,0l-0.2,0c-4,0.4-8.2,3.3-7.9,7.2c0.2,2.9,0.8,6,1.9,9.3l0,0
		c1.4,3.7,5.3,6.8,8.5,6.8c0,0,0,0,0,0h3l0.3-0.2c0.1-0.1,0.1-0.1,0.2-0.2c0.1,0.1,0.1,0.1,0.2,0.2l0.3,0.2h3c0,0,0,0,0,0
		c3.2,0,7-3.1,8.5-6.8l0,0c1.1-3.3,1.8-6.5,1.9-9.3C44,11.3,39.9,8.5,35.9,8z"/>
</g>
</svg>
