<?xml version="1.0" encoding="utf-8"?>
<!-- Generator: Adobe Illustrator 19.0.0, SVG Export Plug-In . SVG Version: 6.00 Build 0)  -->
<svg version="1.1" id="Layer_1" xmlns="http://www.w3.org/2000/svg" xmlns:xlink="http://www.w3.org/1999/xlink" x="0px" y="0px"
	 viewBox="-342 638 64 59" style="enable-background:new -342 638 64 59;" xml:space="preserve">
<style type="text/css">
	.st0{fill:#FFFFFF;}
</style>
<g id="XMLID_1_">
	<circle id="XMLID_190_" class="st0" cx="-303.6" cy="663.4" r="9.7"/>
	<g id="XMLID_164_">
		<g id="XMLID_178_">
			<polygon id="XMLID_75_" class="st0" points="-314.3,695 -339.3,695 -339.3,662 -337.5,662 -337.5,693.2 -314.3,693.2 			"/>
			<g id="XMLID_186_">
				<rect id="XMLID_74_" x="-325.8" y="659.3" class="st0" width="3" height="1.8"/>
				<path id="XMLID_73_" class="st0" d="M-314.5,693.1h-1.8c0-1.2-1-2.2-2.2-2.2h-16.8v-31.6h4v1.8h-2.2V689h15
					c0.8,0,1.6,0.2,2.2,0.7V673h1.8V693.1z"/>
			</g>
			<g id="XMLID_179_">
				<rect id="XMLID_72_" x="-331.2" y="663.9" class="st0" width="8.5" height="1.8"/>
				<rect id="XMLID_71_" x="-331.2" y="668" class="st0" width="8.5" height="1.8"/>
				<rect id="XMLID_70_" x="-331.2" y="672" class="st0" width="12.5" height="1.8"/>
				<rect id="XMLID_69_" x="-331.2" y="675.9" class="st0" width="12.5" height="1.8"/>
				<rect id="XMLID_68_" x="-331.2" y="679.9" class="st0" width="12.5" height="1.8"/>
				<rect id="XMLID_67_" x="-331.2" y="683.9" class="st0" width="12.5" height="1.8"/>
			</g>
		</g>
		<g id="XMLID_176_">
			<path id="XMLID_66_" class="st0" d="M-297.5,693h-1.8v-7.2h8.3c2.1,0,3.8-1.7,3.8-3.8v-7.8h3.4l-5-8.7v-0.3c0-0.3,0-0.5,0-0.8
				c0-9.1-7.4-16.6-16.5-16.6c-3.5,0-6.8,1.1-9.6,3.1l-1.1-1.5c3.1-2.2,6.8-3.4,10.6-3.4c10.2,0.1,18.4,8.4,18.4,18.5
				c0,0.2,0,0.4,0,0.6l6.3,10.9h-4.7v6c0,3.1-2.5,5.6-5.6,5.6h-6.5V693z"/>
		</g>
		<path id="XMLID_63_" class="st0" d="M-303.6,669.6c-3.4,0-6.2-2.8-6.2-6.2c0-3.4,2.8-6.2,6.2-6.2s6.2,2.8,6.2,6.2
			C-297.4,666.8-300.2,669.6-303.6,669.6z M-303.6,658.9c-2.4,0-4.4,2-4.4,4.4c0,2.4,2,4.4,4.4,4.4s4.4-2,4.4-4.4
			C-299.2,660.9-301.2,658.9-303.6,658.9z"/>
		<g id="XMLID_165_">
			<g id="XMLID_171_">
				<path id="XMLID_62_" class="st0" d="M-318.9,658.8h-1.8v-1.4c0-2-1.6-3.6-3.6-3.6V652c3,0,5.4,2.4,5.4,5.4V658.8z"/>
			</g>
			<path id="XMLID_61_" class="st0" d="M-314.7,666.7h-1.8v-19.8c0-3.8,3.1-6.9,6.9-6.9v1.8c-2.8,0-5.1,2.3-5.1,5.1
				C-314.7,646.9-314.7,666.7-314.7,666.7z"/>
			<path id="XMLID_60_" class="st0" d="M-317.7,671.2c-1.6,0-3-1.3-3-3v-9.8h1.8v9.8c0,0.7,0.5,1.2,1.2,1.2c0.7,0,1.2-0.5,1.2-1.2
				v-5.6h1.8v5.6C-314.7,669.9-316,671.2-317.7,671.2z"/>
			<g id="XMLID_167_">
				<path id="XMLID_59_" class="st0" d="M-302.8,657.2h-1.8v-10.3c0-2.8-2.3-5.1-5.1-5.1V640c3.8,0,6.9,3.1,6.9,6.9
					C-302.8,646.9-302.8,657.2-302.8,657.2z"/>
			</g>
			<path id="XMLID_58_" class="st0" d="M-327.7,661.2h-1.8v-3.8c0-3,2.4-5.4,5.4-5.4v1.8c-2,0-3.6,1.6-3.6,3.6
				C-327.7,657.4-327.7,661.2-327.7,661.2z"/>
		</g>
	</g>
</g>
<rect id="XMLID_55_" x="-311.1" y="665.2" class="st0" width="2.3" height="4.6"/>
</svg>
