<?xml version="1.0" encoding="utf-8"?>
<!-- Generator: Adobe Illustrator 19.0.0, SVG Export Plug-In . SVG Version: 6.00 Build 0)  -->
<svg version="1.1" id="Layer_1" xmlns="http://www.w3.org/2000/svg" xmlns:xlink="http://www.w3.org/1999/xlink" x="0px" y="0px"
	 viewBox="0 0 64 59" style="enable-background:new 0 0 64 59;" xml:space="preserve">
<style type="text/css">
	.st0{fill:#29BFE8;}
	.st1{fill:#231F20;}
</style>
<g id="XMLID_1_">
	<circle id="XMLID_190_" class="st0" cx="38.4" cy="25.4" r="9.7"/>
	<g id="XMLID_164_">
		<g id="XMLID_178_">
			<polygon id="XMLID_75_" class="st0" points="27.7,57 2.7,57 2.7,24 4.5,24 4.5,55.2 27.7,55.2 			"/>
			<g id="XMLID_186_">
				<rect id="XMLID_74_" x="16.2" y="21.3" class="st1" width="3" height="1.8"/>
				<path id="XMLID_73_" class="st1" d="M27.5,55.1h-1.8c0-1.2-1-2.2-2.2-2.2H6.7V21.3h4v1.8H8.5V51h15c0.8,0,1.6,0.2,2.2,0.7V35
					h1.8V55.1z"/>
			</g>
			<g id="XMLID_179_">
				<rect id="XMLID_72_" x="10.8" y="25.9" class="st1" width="8.5" height="1.8"/>
				<rect id="XMLID_71_" x="10.8" y="30" class="st1" width="8.5" height="1.8"/>
				<rect id="XMLID_70_" x="10.8" y="34" class="st1" width="12.5" height="1.8"/>
				<rect id="XMLID_69_" x="10.8" y="37.9" class="st1" width="12.5" height="1.8"/>
				<rect id="XMLID_68_" x="10.8" y="41.9" class="st1" width="12.5" height="1.8"/>
				<rect id="XMLID_67_" x="10.8" y="45.9" class="st1" width="12.5" height="1.8"/>
			</g>
		</g>
		<g id="XMLID_176_">
			<path id="XMLID_66_" class="st1" d="M44.5,55h-1.8v-7.2H51c2.1,0,3.8-1.7,3.8-3.8v-7.8h3.4l-5-8.7l0-0.3c0-0.3,0-0.5,0-0.8
				c0-9.1-7.4-16.6-16.5-16.6c-3.5,0-6.8,1.1-9.6,3.1l-1.1-1.5c3.1-2.2,6.8-3.4,10.6-3.4C46.8,8.1,55,16.4,55,26.5
				c0,0.2,0,0.4,0,0.6L61.3,38h-4.7v6c0,3.1-2.5,5.6-5.6,5.6h-6.5V55z"/>
		</g>
		<path id="XMLID_63_" class="st1" d="M38.4,31.6c-3.4,0-6.2-2.8-6.2-6.2c0-3.4,2.8-6.2,6.2-6.2s6.2,2.8,6.2,6.2
			C44.6,28.8,41.8,31.6,38.4,31.6z M38.4,20.9c-2.4,0-4.4,2-4.4,4.4c0,2.4,2,4.4,4.4,4.4s4.4-2,4.4-4.4
			C42.8,22.9,40.8,20.9,38.4,20.9z"/>
		<g id="XMLID_165_">
			<g id="XMLID_171_">
				<path id="XMLID_62_" class="st1" d="M23.1,20.8h-1.8v-1.4c0-2-1.6-3.6-3.6-3.6V14c3,0,5.4,2.4,5.4,5.4V20.8z"/>
			</g>
			<path id="XMLID_61_" class="st1" d="M27.3,28.7h-1.8V8.9c0-3.8,3.1-6.9,6.9-6.9v1.8c-2.8,0-5.1,2.3-5.1,5.1V28.7z"/>
			<path id="XMLID_60_" class="st1" d="M24.3,33.2c-1.6,0-3-1.3-3-3v-9.8h1.8v9.8c0,0.7,0.5,1.2,1.2,1.2c0.7,0,1.2-0.5,1.2-1.2v-5.6
				h1.8v5.6C27.3,31.9,26,33.2,24.3,33.2z"/>
			<g id="XMLID_167_">
				<path id="XMLID_59_" class="st1" d="M39.2,19.2h-1.8V8.9c0-2.8-2.3-5.1-5.1-5.1V2c3.8,0,6.9,3.1,6.9,6.9V19.2z"/>
			</g>
			<path id="XMLID_58_" class="st1" d="M14.3,23.2h-1.8v-3.8c0-3,2.4-5.4,5.4-5.4v1.8c-2,0-3.6,1.6-3.6,3.6V23.2z"/>
		</g>
	</g>
</g>
<rect id="XMLID_55_" x="30.9" y="27.2" class="st1" width="2.3" height="4.6"/>
</svg>
